<svg xmlns="http://www.w3.org/2000/svg" viewBox="0 0 95.801 413.574"><defs><style>.cls-1 { fill: #fafafa; opacity: 0.3; }</style></defs><path id="Path_5" class="cls-1" d="M.879 126.684l37.207-79.59 9.473 4.395-37.3 79.688zm25.342 0l37.207-79.59 9.472 4.394-37.3 79.688zm115.136-55.127q0-9.717-16.309-9.717h-8.057v22.217h8.057q7.52 0 11.914-3.247a10.817 10.817 0 0 0 4.395-9.253zm-36.035 54.443v-73.975h25.244q13.77 0 19.287 7.91a19.178 19.178 0 0 1 3.174 11.182q0 11.719-7.129 18.164-5.225 4.639-13.77 4.639h-15.136v32.08zm55.078 0v-51.514h10.45v7.08q.2-.244.879-1.27l1.172-1.758q3.613-4.932 11.914-4.932a10.675 10.675 0 0 1 1.758.146v8.74q-8.887.146-12.793 4.932a17.966 17.966 0 0 0-2.93 5.518v33.058zm38.672-31.689a49.6 49.6 0 0 0-.293 5.566 44.506 44.506 0 0 0 .293 5.371 26.538 26.538 0 0 0 1.05 4.785 16.315 16.315 0 0 0 1.929 4.15 8.448 8.448 0 0 0 7.422 3.906q10.6 0 10.6-17.822 0-10.449-3.125-14.5-2.539-3.32-7.471-3.32-9.038-.002-10.405 11.864zm-10.742 5.908q0-12.207 5.64-19.409t15.5-7.2a19.372 19.372 0 0 1 11.328 3.32q9.717 6.787 9.717 23.34 0 20.654-12.891 25.342a23.337 23.337 0 0 1-8.13 1.318 23.752 23.752 0 0 1-8.179-1.318 16.542 16.542 0 0 1-6.006-3.662 19.758 19.758 0 0 1-4-5.762q-2.979-6.35-2.979-15.969zm42.139 33.838q4.883 0 7.031-1.587t2.148-7.544v-50.44h10.452v51.855q0 8.3-2.686 11.621a21.1 21.1 0 0 1-1.88 2.075 6.888 6.888 0 0 1-2.417 1.367q-1.563.562-2.637.854a17.15 17.15 0 0 1-3.076.439q-2.588.2-6.543.2zm8.5-64.062v-11.866h11.816v11.865zm27.686 24.17h18.066a15.266 15.266 0 0 0-1.318-6.592q-2.539-5.127-7.031-5.127a9.1 9.1 0 0 0-4.712 1.2 7.968 7.968 0 0 0-3.052 3.1 15.242 15.242 0 0 0-1.958 7.418zm-8.179 21.851a27.673 27.673 0 0 1-2.148-6.885 54.078 54.078 0 0 1-.61-8.936 43.021 43.021 0 0 1 1.27-10.474 26.024 26.024 0 0 1 3.271-8.081 16.972 16.972 0 0 1 4.834-4.858 20.255 20.255 0 0 1 11.377-3.174 16.714 16.714 0 0 1 10.742 3.662q8.588 6.93 8.198 25.73h-29.248q0 9.863 5.225 13.281a10.139 10.139 0 0 0 5.64 1.758 14.112 14.112 0 0 0 4.907-.732 11.6 11.6 0 0 0 3.125-1.66 13.41 13.41 0 0 0 2.148-2.148 13.013 13.013 0 0 0 1.807-2.93l6.641 4.3q-3.613 6.3-7.715 8.984a17.626 17.626 0 0 1-9.985 3.027 26.867 26.867 0 0 1-9.277-1.416 17.59 17.59 0 0 1-6.25-3.76 18.713 18.713 0 0 1-3.956-5.689zm42.944-15.405q0-15.332 6.689-21.826 5.273-5.176 14.771-5.176a16.957 16.957 0 0 1 14.868 8.008 18.226 18.226 0 0 1 2.441 4.834l-8.838 3.906a8.941 8.941 0 0 0-3.271-6.348 7.493 7.493 0 0 0-4.834-1.562q-11.377 0-11.377 17.725 0 8.74 2.979 13.306a9.732 9.732 0 0 0 8.691 4.565 8.117 8.117 0 0 0 6.494-2.93 16.642 16.642 0 0 0 3.125-5.42l8.008 3.516a19.086 19.086 0 0 1-4.785 8.252 17.282 17.282 0 0 1-13.135 5.42q-21.83-.002-21.83-26.272zm43.7-17.285v-8.84h7.666v-18.8h10.449v18.8h10.791v8.838h-10.794v27.637q0 4.15 1.489 5.688t5 1.538a21.239 21.239 0 0 0 2.856-.2 8.394 8.394 0 0 0 1.44-.244v7.373a23.679 23.679 0 0 1-4.077 1.563 15.472 15.472 0 0 1-3.516.342q-2.075 0-3.076-.049a16.673 16.673 0 0 1-2.441-.342 10.407 10.407 0 0 1-2.49-.806 10.173 10.173 0 0 1-2.173-1.489 8.21 8.21 0 0 1-1.849-2.335 17.683 17.683 0 0 1-1.611-8.105v-30.571zm32.422 32.324l7.227-4.395a29.519 29.519 0 0 0 3.174 3.906 11.939 11.939 0 0 0 8.74 3.418q4.248 0 6.055-1.758a6.519 6.519 0 0 0 1.66-4.883 6.607 6.607 0 0 0-2.398-5.567 12.949 12.949 0 0 0-4.248-2.2l-4.59-1.318q-7.959-2.246-11.475-6.055-3.564-3.857-3.564-10.205a11.322 11.322 0 0 1 4.443-9.082q4.688-3.906 13.428-3.906a18.974 18.974 0 0 1 13.525 5.371 12.483 12.483 0 0 1 3.076 3.857l-6.055 4.785q-3.418-4.15-6.836-5.127a16.219 16.219 0 0 0-4.614-.537 8.11 8.11 0 0 0-4.883 1.465 4.967 4.967 0 0 0-2.026 4.3 5.682 5.682 0 0 0 2.881 5.078 20.791 20.791 0 0 0 5.127 2.393l4.395 1.221q10.352 2.93 12.842 9.912a19.741 19.741 0 0 1 1.025 6.714 11.572 11.572 0 0 1-2.417 7.1 15.821 15.821 0 0 1-6.372 4.98 19.5 19.5 0 0 1-7.983 1.758 37.2 37.2 0 0 1-6.641-.488 19.1 19.1 0 0 1-5.054-1.709q-4.734-2.389-8.445-9.03z" transform="translate(142.895 -.879) rotate(90)"/></svg>