<svg xmlns="http://www.w3.org/2000/svg" viewBox="0 0 84.082 387.061"><defs><style>.cls-1 { fill: #fafafa; opacity: 0.3; }</style></defs><path id="Path_10" class="cls-1" d="M.879.684l37.207-79.59 9.473 4.395-37.305 79.687zm25.342 0l37.207-79.59 9.472 4.394-37.3 79.688zm90.771-42.627h12.354a13.091 13.091 0 0 0 8.545-2.783q3.613-2.979 3.613-9.131 0-10.3-16.357-10.3h-8.154zm-11.67 41.943v-73.975h24.854q17.139 0 21.68 12.256a21.089 21.089 0 0 1 1.318 7.373 26.264 26.264 0 0 1-.854 6.934 22.044 22.044 0 0 1-2.52 5.812 16.094 16.094 0 0 1-10.791 7.373l13.677 34.227h-11.963l-12.793-32.08h-10.938v32.08zm60.645-31.836h18.066a15.266 15.266 0 0 0-1.318-6.592q-2.539-5.127-7.031-5.127a9.1 9.1 0 0 0-4.712 1.2 7.968 7.968 0 0 0-3.052 3.1 15.242 15.242 0 0 0-1.953 7.419zm-8.179 21.851a27.674 27.674 0 0 1-2.148-6.885 54.078 54.078 0 0 1-.61-8.936 43.02 43.02 0 0 1 1.27-10.474 26.024 26.024 0 0 1 3.271-8.081 16.973 16.973 0 0 1 4.834-4.858 20.255 20.255 0 0 1 11.377-3.174 16.714 16.714 0 0 1 10.742 3.662q8.594 6.934 8.2 25.732h-29.245q0 9.863 5.225 13.281a10.139 10.139 0 0 0 5.64 1.758 14.112 14.112 0 0 0 4.907-.732 11.6 11.6 0 0 0 3.125-1.66 13.41 13.41 0 0 0 2.148-2.148 13.013 13.013 0 0 0 1.807-2.93l6.641 4.3q-3.613 6.3-7.715 8.984a17.626 17.626 0 0 1-9.986 3.025 26.867 26.867 0 0 1-9.277-1.416 17.59 17.59 0 0 1-6.25-3.76 18.713 18.713 0 0 1-3.956-5.688zm46.118 10.131v-74.121h10.449v74.121zm29.834-13.427a5.414 5.414 0 0 0 1.416 4.175 5.016 5.016 0 0 0 3.516 1.294 15.009 15.009 0 0 0 3.149-.244 10.187 10.187 0 0 0 2.075-.732l1.807-.928a13.452 13.452 0 0 0 1.758-1.221l1.416-1.123 1.27-1.123.879-.83v-12.061q-10.938 2.539-14.307 5.469a9.273 9.273 0 0 0-2.979 7.324zm18.75 13.281q-1.465-.879-1.465-4.541l-.925 1.074q-4.2 4.492-12.012 4.492-9.473 0-12.988-6.689a15.786 15.786 0 0 1-1.807-7.666 18.558 18.558 0 0 1 1.538-7.739 15.462 15.462 0 0 1 5-5.981q6.3-4.687 21.191-7.666a22.826 22.826 0 0 0-.22-4.248q-.22-.781-.488-1.465a2.838 2.838 0 0 0-.659-1.05 11.758 11.758 0 0 0-.977-.806 3.777 3.777 0 0 0-1.367-.635 17 17 0 0 0-4.224-.488 13.083 13.083 0 0 0-4.346.708 12.366 12.366 0 0 0-3.223 1.587 12.311 12.311 0 0 0-2.173 2.051 13.453 13.453 0 0 0-1.807 2.734l-6.836-4.2a22.1 22.1 0 0 1 3.711-5.933 27.874 27.874 0 0 1 3.076-2.563 13.927 13.927 0 0 1 3.223-1.709 23.945 23.945 0 0 1 8.35-1.514 38.971 38.971 0 0 1 6.763.464 16.712 16.712 0 0 1 4.785 1.66 10.785 10.785 0 0 1 3.735 3.2q3.125 4.346 3.125 12.7v26.948a20.579 20.579 0 0 0 .513 3.857 17.263 17.263 0 0 0 .956 3.418zm14.063-42.676v-8.838h7.666v-18.8h10.449v18.8h10.791v8.838h-10.791v27.637q0 4.15 1.489 5.688t5 1.538a21.239 21.239 0 0 0 2.856-.2 8.394 8.394 0 0 0 1.44-.244v7.378a23.679 23.679 0 0 1-4.071 1.563 15.472 15.472 0 0 1-3.516.342q-2.075 0-3.076-.049a16.673 16.673 0 0 1-2.441-.342 10.407 10.407 0 0 1-2.49-.806 10.173 10.173 0 0 1-2.173-1.489 8.21 8.21 0 0 1-1.856-2.34 17.683 17.683 0 0 1-1.611-8.105v-30.571zm42.969 10.84h18.066a15.266 15.266 0 0 0-1.318-6.592q-2.539-5.127-7.031-5.127a9.1 9.1 0 0 0-4.712 1.2 7.968 7.968 0 0 0-3.052 3.1 15.242 15.242 0 0 0-1.954 7.419zm-8.179 21.851a27.673 27.673 0 0 1-2.148-6.885 54.079 54.079 0 0 1-.61-8.936 43.021 43.021 0 0 1 1.27-10.474 26.024 26.024 0 0 1 3.271-8.081 16.972 16.972 0 0 1 4.834-4.858 20.255 20.255 0 0 1 11.377-3.174 16.714 16.714 0 0 1 10.742 3.662q8.594 6.934 8.2 25.732h-29.246q0 9.863 5.225 13.281a10.139 10.139 0 0 0 5.64 1.758 14.112 14.112 0 0 0 4.907-.732 11.6 11.6 0 0 0 3.125-1.66 13.41 13.41 0 0 0 2.148-2.148 13.013 13.013 0 0 0 1.807-2.93l6.641 4.3q-3.613 6.3-7.715 8.984a17.626 17.626 0 0 1-9.986 3.025 26.867 26.867 0 0 1-9.277-1.416 17.591 17.591 0 0 1-6.248-3.763 18.713 18.713 0 0 1-3.957-5.685zm74.78-28.54q-4.834-5.029-10.547-5.029a8.865 8.865 0 0 0-8.545 5.127q-2.295 4.492-2.295 13.477 0 9.912 3.223 13.721 2.734 3.271 8.105 3.271a11.228 11.228 0 0 0 9.375-5.029q.635-.879.684-.928zm10.449 31.543a19.418 19.418 0 0 0 1.367 6.982h-11.039a3.552 3.552 0 0 1-.293-.684l-.488-3.174q-3.707 4.737-10.836 4.737-12.3 0-17.871-11.377a31.96 31.96 0 0 1-3.125-14.302q0-18.6 9.18-24.463 4.883-3.125 12.5-3.125a13.527 13.527 0 0 1 6.519 1.489 10.241 10.241 0 0 1 3.638 2.808v-25.884h10.449z" transform="translate(5.176 -.879) rotate(90)"/></svg>