<svg xmlns="http://www.w3.org/2000/svg" viewBox="0 0 84.082 326.709">
  <defs>
    <style>
      .cls-1 {
        fill: #fafafa;
        opacity: 0.3;
      }
    </style>
  </defs>
  <path id="Path_6" data-name="Path 6" class="cls-1" d="M.879,126.684l37.207-79.59,9.473,4.395-37.3,79.688Zm25.342,0,37.207-79.59L72.9,51.488,35.6,131.176ZM118.066,94.75h13.818L125,70.873ZM97.07,126l21.094-73.975h12.793L152.051,126H140.771l-6.1-21.436H115.283L109.18,126Zm80.518-43.555q-5.713,0-10.547,5.029v24.609q.049.049.684.9a14.294,14.294,0,0,0,1.367,1.587,16.559,16.559,0,0,0,1.855,1.563,8.984,8.984,0,0,0,5.688,1.9,13.249,13.249,0,0,0,5.3-.9,8.764,8.764,0,0,0,3.271-2.368,11.113,11.113,0,0,0,1.953-3.711,29.763,29.763,0,0,0,1.27-9.253,50.294,50.294,0,0,0-.635-8.838,20.537,20.537,0,0,0-1.636-5.42,9.09,9.09,0,0,0-2.515-3.149A9.385,9.385,0,0,0,177.588,82.445Zm-10.547,39.7Q166.65,126,166.26,126H155.225a17.242,17.242,0,0,0,1.367-6.982V52.025h10.449V77.9A10.224,10.224,0,0,1,170.7,75.1a13.781,13.781,0,0,1,6.592-1.489,26.819,26.819,0,0,1,6.982.854,19.369,19.369,0,0,1,5.4,2.271,15.805,15.805,0,0,1,3.906,3.54,19.23,19.23,0,0,1,2.661,4.419,29.1,29.1,0,0,1,1.611,5.225,48.337,48.337,0,0,1,1.025,9.961,44.043,44.043,0,0,1-.732,8.667,28.862,28.862,0,0,1-2.368,6.934,23.677,23.677,0,0,1-4.028,5.884q-5.273,5.518-13.867,5.518Q170.752,126.879,167.041,122.143Zm47.754-27.832a49.6,49.6,0,0,0-.293,5.566,44.506,44.506,0,0,0,.293,5.371,26.538,26.538,0,0,0,1.05,4.785,16.315,16.315,0,0,0,1.929,4.15,8.448,8.448,0,0,0,7.422,3.906q10.6,0,10.6-17.822,0-10.449-3.125-14.5-2.539-3.32-7.471-3.32Q216.162,82.445,214.795,94.311Zm-10.742,5.908q0-12.207,5.64-19.409t15.5-7.2a19.372,19.372,0,0,1,11.328,3.32q9.717,6.787,9.717,23.34,0,20.654-12.891,25.342a23.337,23.337,0,0,1-8.13,1.318,23.752,23.752,0,0,1-8.179-1.318,16.542,16.542,0,0,1-6.006-3.662,19.758,19.758,0,0,1-4-5.762Q204.053,109.838,204.053,100.219Zm50.83,12.891V74.486h10.449v35.889a7.458,7.458,0,0,0,2.124,5.591,6.955,6.955,0,0,0,5.029,2.075,11.257,11.257,0,0,0,5.811-1.733,16.717,16.717,0,0,0,4.321-3.442V74.486h10.449V126H282.617v-5.469q-6.348,6.348-13.184,6.348a15.884,15.884,0,0,1-10.205-3.223Q254.883,120.189,254.883,113.109Zm43.8-29.785V74.486h7.666v-18.8H316.8v18.8h10.791v8.838H316.8v27.637q0,4.15,1.489,5.688t5,1.538a21.239,21.239,0,0,0,2.856-.2,8.394,8.394,0,0,0,1.44-.244v7.373a23.679,23.679,0,0,1-4.077,1.563,15.472,15.472,0,0,1-3.516.342q-2.075,0-3.076-.049a16.673,16.673,0,0,1-2.441-.342,10.407,10.407,0,0,1-2.49-.806,10.173,10.173,0,0,1-2.173-1.489A8.21,8.21,0,0,1,307.959,122a17.683,17.683,0,0,1-1.611-8.105V83.324Z" transform="translate(-47.094 327.588) rotate(-90)"/>
</svg>
