<svg xmlns="http://www.w3.org/2000/svg" viewBox="0 0 100.977 272.9"><defs><style>.a{fill:#fafafa;opacity:0.3;}</style></defs><path class="a" d="M.879.684l37.207-79.59,9.473,4.395L10.254,5.176Zm25.342,0,37.207-79.59L72.9-74.512,35.6,5.176Zm90.771-44.043H129a11.4,11.4,0,0,0,8.545-3.809,10.7,10.7,0,0,0,2.832-7.764q0-9.229-11.377-9.229H116.992Zm0,33.545h12.5q6.836,0,9.668-3.223,2.393-2.686,2.393-7.959a12.494,12.494,0,0,0-3.271-8.2,11.012,11.012,0,0,0-8.789-4.1h-12.5ZM105.322,0V-73.975H129.1q10.449,0,16.26,5.127A15.965,15.965,0,0,1,150.977-56.3q0,12.549-9.082,16.016a24.6,24.6,0,0,1-3.662,1.123,17.108,17.108,0,0,1,10.156,5.908q4.248,5.029,4.248,13.184,0,11.621-7.324,16.455Q139.7,0,129.492,0Zm56.1.146V-73.975h10.449V.146Zm29.59-31.836a49.6,49.6,0,0,0-.293,5.566,44.506,44.506,0,0,0,.293,5.371,26.538,26.538,0,0,0,1.05,4.785,16.315,16.315,0,0,0,1.929,4.15,8.448,8.448,0,0,0,7.422,3.906q10.6,0,10.6-17.822,0-10.449-3.125-14.5-2.539-3.32-7.471-3.32Q192.383-43.555,191.016-31.689Zm-10.742,5.908q0-12.207,5.64-19.409t15.5-7.2a19.372,19.372,0,0,1,11.328,3.32q9.717,6.787,9.717,23.34,0,20.654-12.891,25.342A23.337,23.337,0,0,1,201.44.928a23.752,23.752,0,0,1-8.179-1.318,16.542,16.542,0,0,1-6.006-3.662,19.758,19.758,0,0,1-4-5.762Q180.273-16.162,180.273-25.781Zm83.374,5.811a17.8,17.8,0,0,1-6.4,4.053,21.529,21.529,0,0,1-7.739,1.465,17.739,17.739,0,0,1-6.4-.977,11.594,11.594,0,0,1-1.611,1.221q-2.295,1.563-2.295,3.271,0,2.295,7.373,3.174,1.367.2,1.709.22t1.758.049q1.416.024,2.2.049t2.515.22a32.411,32.411,0,0,1,3.3.537q8.4,1.9,10.742,4a13.853,13.853,0,0,1,4.883,10.6q0,14.16-24.023,14.16-10.01,0-16.455-3.32-6.885-3.516-6.885-10.791,0-6.445,9.375-10.01a7.939,7.939,0,0,1-4.932-2.563,7.347,7.347,0,0,1-2-5.151q0-6.25,7.52-9.521-2.539-1.318-4.687-5.786a21.53,21.53,0,0,1-2.148-9.448,16.179,16.179,0,0,1,2.808-9.18,18.256,18.256,0,0,1,7.593-6.445,24.86,24.86,0,0,1,10.693-2.246,16.55,16.55,0,0,1,5.64,1.05,13.339,13.339,0,0,1,4.126,2.124,16.259,16.259,0,0,1,8.984-3.223q.684-.049,2.246-.073t2.246-.024v8.789h-.2q-4.736-.488-6.348.342-.488.244-.464.488a14.415,14.415,0,0,0,.562,1.758q.537,1.514.83,2.344a20.516,20.516,0,0,1,.83,5.981,18.346,18.346,0,0,1-1.392,6.763A17.959,17.959,0,0,1,263.647-19.971ZM249.9-43.555a10.285,10.285,0,0,0-7.251,2.539q-2.759,2.539-2.759,7.349a10.813,10.813,0,0,0,2.515,7.568q2.515,2.759,7.446,2.759,6.3,0,8.2-6.836a12.474,12.474,0,0,0,.488-3.442,11.965,11.965,0,0,0-.488-3.394,12.167,12.167,0,0,0-1.465-3.174A7.438,7.438,0,0,0,249.9-43.555ZM238.525,3.833a8.612,8.612,0,0,0-1.367,2.124,5.458,5.458,0,0,0-.439,2.173,4.027,4.027,0,0,0,.439,1.953,4.336,4.336,0,0,0,1.074,1.318,5.913,5.913,0,0,0,1.733.9,13.293,13.293,0,0,0,2.026.562,21.475,21.475,0,0,0,2.344.269q1.953.146,4.175.146t3.223-.024q1-.024,2.661-.122a19.877,19.877,0,0,0,2.734-.317q1.074-.22,2.344-.61a5.46,5.46,0,0,0,1.953-.977,4.126,4.126,0,0,0,1.758-3.369,4.071,4.071,0,0,0-1.66-3.32,10.664,10.664,0,0,0-4.2-1.929,50.6,50.6,0,0,0-5.078-.952q-2.539-.342-4.81-.537A12.636,12.636,0,0,1,244.58.684Q239.453,2.734,238.525,3.833Z" transform="translate(22.07 -0.879) rotate(90)"/></svg>