<svg xmlns="http://www.w3.org/2000/svg" viewBox="0 0 84.082 299.854">
  <defs>
    <style>
      .cls-1 {
        fill: #fafafa;
        opacity: 0.3;
      }
    </style>
  </defs>
  <path id="Path_4" data-name="Path 4" class="cls-1" d="M.879,126.684l37.207-79.59,9.473,4.395-37.3,79.688Zm25.342,0,37.207-79.59L72.9,51.488,35.6,131.176Zm74.268-19.629,9.375-3.076a2.352,2.352,0,0,1,.2.732q.146.732.513,1.929a21.631,21.631,0,0,0,1.025,2.637,11.884,11.884,0,0,0,1.929,2.881,15.759,15.759,0,0,0,12.451,5.3q5.664,0,8.325-2.783a9.246,9.246,0,0,0,2.661-6.616,20.267,20.267,0,0,0-.781-6.2,9.485,9.485,0,0,0-2.734-4.126q-3.271-2.93-11.328-5.273Q107.91,88.3,103.857,79.613a25.271,25.271,0,0,1-2.1-10.693,16.793,16.793,0,0,1,3.662-10.107q6.4-8.154,18.164-8.154,9.326,0,15.283,5.615a24.289,24.289,0,0,1,6.348,9.961l.928,2.588q.439,1.172.586,1.514l-9.521,3.369q-3.223-10.254-10.059-12.646a10.914,10.914,0,0,0-3.564-.586q-10.156,0-10.156,10.449,0,4.785,2.832,7.324a16.462,16.462,0,0,0,6.152,3.467l2.344.781q2,.684,2.2.732l2.148.732q8.35,2.93,11.279,5.176,4.3,3.32,5.615,6.1a28.443,28.443,0,0,1,2.637,12.061,20.8,20.8,0,0,1-2.832,10.107,18.386,18.386,0,0,1-12.061,9.033,27.357,27.357,0,0,1-6.934.83,34.712,34.712,0,0,1-7.056-.684,24.059,24.059,0,0,1-5.688-1.855,26.829,26.829,0,0,1-4.395-2.686,19.279,19.279,0,0,1-3.369-3.2,30.654,30.654,0,0,1-2.393-3.369,22.106,22.106,0,0,1-1.636-3.2q-.61-1.514-1-2.686t-.562-1.855A2.154,2.154,0,0,0,100.488,107.055ZM156.2,126V52.025H166.65v41.65l14.844-19.189h12.7L179.248,93.529,195.068,126H183.252l-11.23-23.242-5.371,6.787V126Zm44.287,0V74.486h10.449V126Zm-.732-56.006V58.129h11.865V69.994Zm22.8,56.152V52.025h10.449v74.121Zm22.021,0V52.025h10.449v74.121Zm19.238-10.5,7.227-4.395a29.519,29.519,0,0,0,3.174,3.906,11.939,11.939,0,0,0,8.74,3.418q4.248,0,6.055-1.758a6.519,6.519,0,0,0,1.66-4.883,6.607,6.607,0,0,0-2.393-5.566,12.949,12.949,0,0,0-4.248-2.2l-4.59-1.318q-7.959-2.246-11.475-6.055Q264.4,92.943,264.4,86.6a11.322,11.322,0,0,1,4.443-9.082q4.688-3.906,13.428-3.906A18.974,18.974,0,0,1,295.8,78.979a12.483,12.483,0,0,1,3.076,3.857l-6.055,4.785q-3.418-4.15-6.836-5.127a16.219,16.219,0,0,0-4.614-.537,8.11,8.11,0,0,0-4.883,1.465,4.967,4.967,0,0,0-2.026,4.3,5.682,5.682,0,0,0,2.881,5.078,20.791,20.791,0,0,0,5.127,2.393l4.395,1.221q10.352,2.93,12.842,9.912a19.741,19.741,0,0,1,1.025,6.714,11.572,11.572,0,0,1-2.417,7.1,15.821,15.821,0,0,1-6.372,4.98,19.5,19.5,0,0,1-7.983,1.758,37.2,37.2,0,0,1-6.641-.488,19.1,19.1,0,0,1-5.054-1.709Q267.529,122.289,263.818,115.648Z" transform="translate(-47.094 300.732) rotate(-90)"/>
</svg>
