<svg xmlns="http://www.w3.org/2000/svg" viewBox="0 0 58.146 300"><path fill="#FCAB10" class="a" d="M52 10.156q-12.027 0-18.514-12.1t-6.486-33.945v-56.731q0-18.387-4.972-27.423a18.1 18.1 0 0 0-15.389-9.822v-19.958a17.779 17.779 0 0 0 15.341-9.665q5.02-9.036 5.02-27.422v-56.89q0-22.158 6.3-34.1t18.7-11.944h12.786v20.272h-5.966q-8.618 0-12.264 8.408t-3.646 25.38v55.946q0 14.772-5.019 25.537t-13.352 14.064v.314q8.428 3.3 13.4 13.986t4.972 25.93v56.1q0 16.658 3.646 25.223t12.263 8.568h5.966v20.272z" transform="translate(-6.641 289.844)"/></svg>