<svg xmlns="http://www.w3.org/2000/svg" viewBox="0 0 84.082 403.711"><defs><style>.cls-1 { fill: #fafafa; opacity: 0.3; }</style></defs><path id="Path_7" class="cls-1" d="M.879 126.684l37.207-79.59 9.473 4.395-37.3 79.688zm25.342 0l37.207-79.59 9.472 4.394-37.3 79.688zm76.953-28.516a55.189 55.189 0 0 1-.781-9.277 57.864 57.864 0 0 1 .732-9.229 56.353 56.353 0 0 1 2.175-8.862 35.78 35.78 0 0 1 3.76-7.959 31.791 31.791 0 0 1 5.3-6.372 22.479 22.479 0 0 1 15.771-5.811q11.963 0 18.9 11.963a37.89 37.89 0 0 1 4.541 11.963v.049l-10.156 2.734a31.835 31.835 0 0 0-1.855-7.642 28.633 28.633 0 0 0-2.148-4.053 12.505 12.505 0 0 0-2.344-2.71 10.509 10.509 0 0 0-6.86-2.49 12.012 12.012 0 0 0-6.567 1.733 14.253 14.253 0 0 0-4.492 4.541 28.075 28.075 0 0 0-2.93 6.567 52.714 52.714 0 0 0-2.148 15.625q0 23.047 10.938 27.539a12.819 12.819 0 0 0 4.98.977 15.031 15.031 0 0 0 4.712-.684 11.532 11.532 0 0 0 3.491-1.782 12.791 12.791 0 0 0 2.515-2.612 15.817 15.817 0 0 0 1.758-3.052 19.862 19.862 0 0 0 1.05-3.149 21.139 21.139 0 0 0 .732-5.273l10.889 1.514a40.662 40.662 0 0 1-7.666 16.26q-6.934 8.594-17.432 8.594-12.891 0-20.752-12.256a44.133 44.133 0 0 1-6.113-16.846zm67.526-3.857a49.6 49.6 0 0 0-.293 5.566 44.506 44.506 0 0 0 .293 5.371 26.538 26.538 0 0 0 1.05 4.785 16.315 16.315 0 0 0 1.929 4.15 8.448 8.448 0 0 0 7.422 3.906q10.6 0 10.6-17.822 0-10.449-3.125-14.5-2.539-3.32-7.471-3.32-9.035-.002-10.405 11.864zm-10.742 5.908q0-12.207 5.64-19.409t15.5-7.2a19.372 19.372 0 0 1 11.328 3.32q9.717 6.787 9.717 23.34 0 20.654-12.891 25.342a23.337 23.337 0 0 1-8.13 1.318 23.752 23.752 0 0 1-8.179-1.318 16.542 16.542 0 0 1-6.006-3.662 19.758 19.758 0 0 1-4-5.762q-2.976-6.35-2.976-15.969zm88.623-12.842v38.623h-10.446v-35.889a7.458 7.458 0 0 0-2.124-5.591 6.983 6.983 0 0 0-5.054-2.075 11.17 11.17 0 0 0-5.811 1.733 16.828 16.828 0 0 0-4.3 3.442v38.38h-10.446v-51.514h10.45v5.469a27.846 27.846 0 0 1 5.933-4.59 14.454 14.454 0 0 1 7.251-1.758 15.7 15.7 0 0 1 10.449 3.442q4.101 3.443 4.101 10.328zm5.518-4.053v-8.838h7.666v-18.8h10.449v18.8h10.791v8.838h-10.788v27.637q0 4.15 1.489 5.688t5 1.538a21.239 21.239 0 0 0 2.856-.2 8.394 8.394 0 0 0 1.44-.244v7.373a23.679 23.679 0 0 1-4.077 1.563 15.472 15.472 0 0 1-3.516.342q-2.075 0-3.076-.049a16.673 16.673 0 0 1-2.441-.342 10.407 10.407 0 0 1-2.49-.806 10.173 10.173 0 0 1-2.173-1.489 8.21 8.21 0 0 1-1.85-2.335 17.683 17.683 0 0 1-1.611-8.105v-30.571zm43.018 29.395a5.414 5.414 0 0 0 1.416 4.175 5.016 5.016 0 0 0 3.516 1.294 15.009 15.009 0 0 0 3.149-.244 10.187 10.187 0 0 0 2.075-.732l1.807-.928a13.45 13.45 0 0 0 1.758-1.221l1.416-1.123 1.27-1.123.879-.83v-12.061q-10.937 2.539-14.307 5.469a9.273 9.273 0 0 0-2.977 7.324zm18.752 13.281q-1.465-.879-1.465-4.541l-.928 1.074q-4.2 4.492-12.012 4.492-9.473 0-12.988-6.689a15.786 15.786 0 0 1-1.807-7.666 18.558 18.558 0 0 1 1.538-7.739 15.462 15.462 0 0 1 5-5.981q6.3-4.687 21.191-7.666a22.826 22.826 0 0 0-.22-4.248 15.437 15.437 0 0 0-.488-1.465 2.839 2.839 0 0 0-.659-1.05 11.756 11.756 0 0 0-.977-.806 3.777 3.777 0 0 0-1.367-.635 17 17 0 0 0-4.224-.488 13.083 13.083 0 0 0-4.346.708 11.048 11.048 0 0 0-5.4 3.638 13.453 13.453 0 0 0-1.807 2.734l-6.836-4.2a22.1 22.1 0 0 1 3.726-5.932 27.872 27.872 0 0 1 3.076-2.563 13.928 13.928 0 0 1 3.223-1.709 23.945 23.945 0 0 1 8.35-1.514 38.972 38.972 0 0 1 6.763.464 16.712 16.712 0 0 1 4.785 1.66 10.785 10.785 0 0 1 3.735 3.2q3.125 4.346 3.125 12.7v26.953a20.579 20.579 0 0 0 .513 3.857 17.264 17.264 0 0 0 .952 3.418zm16.113-25.391q0-15.332 6.689-21.826 5.273-5.176 14.771-5.176a16.957 16.957 0 0 1 14.868 8.008 18.226 18.226 0 0 1 2.441 4.834l-8.838 3.906a8.941 8.941 0 0 0-3.271-6.348 7.493 7.493 0 0 0-4.834-1.562q-11.377 0-11.377 17.725 0 8.74 2.979 13.306a9.732 9.732 0 0 0 8.691 4.565 8.117 8.117 0 0 0 6.494-2.93 16.642 16.642 0 0 0 3.125-5.42l8.008 3.516a19.086 19.086 0 0 1-4.785 8.252 17.282 17.282 0 0 1-13.135 5.42q-21.826 0-21.826-26.27zm43.7-17.285v-8.838h7.666v-18.8h10.452v18.8h10.79v8.838h-10.79v27.637q0 4.15 1.489 5.688t5 1.538a21.239 21.239 0 0 0 2.856-.2 8.394 8.394 0 0 0 1.44-.244v7.373a23.679 23.679 0 0 1-4.077 1.563 15.472 15.472 0 0 1-3.516.342q-2.075 0-3.076-.049a16.673 16.673 0 0 1-2.441-.342 10.407 10.407 0 0 1-2.49-.806 10.173 10.173 0 0 1-2.173-1.489 8.21 8.21 0 0 1-1.851-2.335 17.683 17.683 0 0 1-1.611-8.105v-30.571z" transform="translate(131.176 -.879) rotate(90)"/></svg>